<svg xmlns="http://www.w3.org/2000/svg" width="269.75" height="35.427" viewBox="0 0 269.75 35.427"><defs><style>.a{fill:#7e7e7e;}</style></defs><path class="a" d="M4174.926,5726.077a5.156,5.156,0,0,0,.682-1.459c.234-2,1.134-3.55,3.12-4.073a44.724,44.724,0,0,1,6-1.045c7.512-.911,15.034-1.739,22.543-2.664,1.1-.136,1.685.1,1.893,1.2.134.708.347,1.4.522,2.1.141.562.352,1.1-.376,1.5-.205.113-.257.6-.287.918-.185,2.006-1.11,3.556-3.095,4.08a44.49,44.49,0,0,1-6,1.047c-7.546.914-15.1,1.764-22.649,2.651-1.536.181-1.569.208-2.013-1.278-.294-.984-.505-1.993-.753-2.991Z" transform="translate(-4162.738 -5705.88)"/><path class="a" d="M4843.341,5718.243c-1.588-.081-3.147-.084-4.689-.253-2.62-.288-4.15-1.956-3.838-4.54a28.052,28.052,0,0,1,4.282-12.562,7.752,7.752,0,0,1,6.3-3.292,75.1,75.1,0,0,1,8.289.015,7.893,7.893,0,0,1,3.147,1.122,2.532,2.532,0,0,1,1.3,2.534,23.977,23.977,0,0,1-.585,4.258c-.836,2.967-1.543,5.989-3.257,8.65a8.318,8.318,0,0,1-6.118,3.8C4846.571,5718.205,4844.933,5718.163,4843.341,5718.243Zm1.147-4.231c0-.049,0-.1.006-.146.9,0,1.8.053,2.692-.011a3.3,3.3,0,0,0,3.253-2.131c.879-2.6,1.715-5.22,2.463-7.861.35-1.234-.121-1.9-1.4-1.978-1.957-.119-3.925-.1-5.886-.055a3.426,3.426,0,0,0-3.372,2.7c-.574,1.835-1.162,3.667-1.724,5.506a19.489,19.489,0,0,0-.5,1.994,1.272,1.272,0,0,0,1.179,1.7C4842.287,5713.865,4843.391,5713.919,4844.488,5714.012Z" transform="translate(-4685.868 -5690.579)"/><path class="a" d="M5133.228,5697.6a26.2,26.2,0,0,1,4.138.05,7.853,7.853,0,0,1,3.275,1.307,3.331,3.331,0,0,1,1.1,2.283,11.926,11.926,0,0,1-.422,3.962c-.9,3.087-1.591,6.262-3.388,9.039a7.766,7.766,0,0,1-6.028,3.736,73.691,73.691,0,0,1-9.416.048c-2.258-.106-4.506-1.525-4.019-4.774a29.634,29.634,0,0,1,4.183-12.184,8.075,8.075,0,0,1,6.433-3.445C5130.455,5697.5,5131.846,5697.6,5133.228,5697.6Zm-5.1,16.407v-.1c.9,0,1.8.054,2.693-.012,1.37-.1,2.674-.522,3.167-1.931q1.409-4.031,2.58-8.144c.333-1.172-.153-1.822-1.392-1.893-1.991-.114-3.993-.1-5.988-.043a3.309,3.309,0,0,0-3.239,2.572c-.4,1.277-.811,2.552-1.208,3.831-.346,1.115-.741,2.22-1,3.354-.342,1.48.079,2.053,1.6,2.231C5126.264,5713.981,5127.2,5713.966,5128.133,5714.007Z" transform="translate(-4910.589 -5690.617)"/><path class="a" d="M4554.535,5719.109c-1.7,0-3.31.05-4.912-.051-.254-.017-.608-.691-.671-1.1-.222-1.46-.333-2.937-.5-4.406-.138-1.248-.4-1.5-1.624-1.494-1.137,0-2.568-.364-3.328.182s-.835,2.009-1.184,3.08c-.331,1.012-.565,2.061-.969,3.041a1.455,1.455,0,0,1-1.015.736,28.893,28.893,0,0,1-3,.036c-1.308,0-1.339-.04-.958-1.267q2.18-7.04,4.367-14.079c.367-1.181.757-2.356,1.092-3.546.151-.54.405-.826,1-.823,4.044.018,8.089-.047,12.131.053a3.4,3.4,0,0,1,3.392,4.3c-.577,3.094-1.707,5.844-4.794,6.957C4553.889,5713.551,4554.2,5716.248,4554.535,5719.109Zm-9.814-11.481c.14.08.2.14.255.141,1.62.012,3.24.027,4.86.024a3.3,3.3,0,0,0,3.259-3.279c-.011-.6-.2-1.11-.926-1.114-2.031-.009-4.061,0-6.138,0C4545.581,5704.851,4545.148,5706.249,4544.721,5707.628Z" transform="translate(-4449.278 -5692.104)"/><path class="a" d="M5235.063,5710.727c.329,2.874.635,5.545.958,8.372-1.7,0-3.312.05-4.917-.052-.251-.017-.6-.7-.661-1.107-.222-1.461-.333-2.937-.5-4.407-.139-1.244-.394-1.486-1.632-1.482-1.137,0-2.57-.361-3.327.185s-.83,2.014-1.179,3.085c-.32.98-.634,1.964-.9,2.959a1.017,1.017,0,0,1-1.192.855c-1-.04-2,0-3.007-.011-1.146-.006-1.214-.091-.877-1.18q2.284-7.386,4.582-14.768c.305-.984.642-1.96.913-2.954a.924.924,0,0,1,1-.812c4.009.015,8.02-.047,12.027.043,2.543.058,3.943,1.923,3.464,4.422C5239.237,5706.938,5238.071,5709.622,5235.063,5710.727Zm-8.9-2.94c1.812,0,3.491.006,5.17,0a3.3,3.3,0,0,0,3.255-3.284c-.012-.6-.2-1.107-.931-1.11-2.03-.009-4.061,0-6.134,0Z" transform="translate(-4989.23 -5692.094)"/><path class="a" d="M4752.235,5710.872c-1.648,0-3.158-.023-4.667.01-.828.018-1.112-.17-.835-1.074.882-2.882.85-2.892,3.824-2.891,2.351,0,4.7.021,7.052-.011.861-.012,1.113.228.815,1.093-.549,1.591-1.007,3.213-1.5,4.822a8.725,8.725,0,0,1-7.929,6.077c-2.245.07-4.495.063-6.74.013a4.463,4.463,0,0,1-4.45-5.449c.547-2.544,1.561-4.986,2.151-7.524a9.5,9.5,0,0,1,9.194-6.765c2.992.214,6.012.04,9.02.044,1.337,0,1.4.054.99,1.249-1.133,3.327-.16,2.659-3.734,2.717-2.281.037-4.563,0-6.845.009a3.454,3.454,0,0,0-3.318,2.444q-.937,3-1.861,6.007a6.763,6.763,0,0,0-.3,1.3,1.647,1.647,0,0,0,1.621,1.972,34.968,34.968,0,0,0,4.352-.018,2.751,2.751,0,0,0,2.654-2.225C4751.853,5712.117,4752.033,5711.57,4752.235,5710.872Z" transform="translate(-4608.948 -5691.899)"/><path class="a" d="M4643.5,5714.242c-2.52,0-4.931-.022-7.341.029-.287.006-.634.369-.835.649-.879,1.233-1.671,2.531-2.592,3.73a2.038,2.038,0,0,1-1.328.7c-1.363.093-2.737.033-4.359.033.262-.5.379-.8.554-1.059q5.717-8.413,11.439-16.823a3.534,3.534,0,0,1,2.811-1.7,34.667,34.667,0,0,1,4.344,0c1.4.1,1.831.681,1.91,2.07.31,5.458.614,10.917.96,16.373.054.841-.135,1.207-1.042,1.155a30.127,30.127,0,0,0-3.212,0c-.831.042-1.068-.3-1.078-1.087C4643.71,5717.009,4643.585,5715.707,4643.5,5714.242Zm-.556-10.179-.238-.1c-1.337,1.984-2.674,3.968-4.063,6.029h4.633C4643.158,5707.957,4643.049,5706.01,4642.94,5704.063Z" transform="translate(-4521.279 -5692.356)"/><path class="a" d="M4956.426,5699.444c-.382,1.244-.644,2.312-1.062,3.314a1.373,1.373,0,0,1-1.065.53c-2.73.044-5.463.021-8.194.024a2.719,2.719,0,0,0-2.762,2.731c-.008.646.393.825.938.834,1.417.022,2.835.008,4.251.064a14.317,14.317,0,0,1,2.669.288,3.217,3.217,0,0,1,2.743,3.773c-.388,3.743-2.228,6.448-5.875,7.758a4.648,4.648,0,0,1-1.516.275c-3.734.023-7.469.016-11.2.01a9.376,9.376,0,0,1-.993-.128c.386-1.236.7-2.385,1.131-3.485.082-.209.647-.32.991-.323,2.973-.024,5.947-.015,8.92-.015a2.879,2.879,0,0,0,3.069-2.562c.172-.869-.124-1.344-1.022-1.377-1.174-.044-2.349-.058-3.523-.093-.795-.023-1.592-.023-2.382-.1-2.791-.263-4.013-1.763-3.638-4.524a8.114,8.114,0,0,1,8.086-7.126c3,.108,6.015.021,9.023.027C4955.417,5699.344,4955.82,5699.4,4956.426,5699.444Z" transform="translate(-4764.771 -5692.022)"/><path class="a" d="M4460.673,5699.483c1.866,0,3.737-.086,5.6.021,2.75.158,4.217,1.794,3.908,4.5-.448,3.921-2.637,8.385-8.831,8.465-1.555.021-3.115.073-4.665-.017a1.383,1.383,0,0,0-1.694,1.246c-.375,1.532-.946,3.016-1.373,4.537a1.073,1.073,0,0,1-1.256.91,28.575,28.575,0,0,0-3.006,0c-.952.058-1.136-.284-.863-1.146,1.289-4.062,2.543-8.133,3.81-12.2.572-1.837,1.171-3.667,1.7-5.517a1.034,1.034,0,0,1,1.177-.869c1.832.024,3.664.009,5.5.009Zm-4.027,8.968c2.166,0,4.159.032,6.149-.028a1.487,1.487,0,0,0,1.119-.6,20.044,20.044,0,0,0,1.3-3.393c.182-.663-.274-1.056-1.032-1.045-1.792.024-3.583-.013-5.374.029a.967.967,0,0,0-.733.483C4457.577,5705.345,4457.148,5706.819,4456.646,5708.452Z" transform="translate(-4379.722 -5692.099)"/><path class="a" d="M5037.1,5699.437c1.866,0,3.737-.084,5.6.021,2.756.155,4.119,1.771,3.95,4.484a8.7,8.7,0,0,1-8.84,8.477c-1.555.028-3.114.068-4.666-.014-.984-.052-1.465.223-1.707,1.228-.376,1.567-.944,3.088-1.4,4.637a.979.979,0,0,1-1.11.824c-.966-.038-1.935-.008-2.9-.01-1.4,0-1.406-.012-1.005-1.307q1.644-5.317,3.295-10.635c.691-2.231,1.414-4.455,2.058-6.7a1.251,1.251,0,0,1,1.444-1.089c1.761.059,3.526.018,5.289.018Zm-4.014,8.945c2.2,0,4.256.02,6.308-.021a1.432,1.432,0,0,0,.88-.471,5.4,5.4,0,0,0,1.408-3.553c.027-.584-.226-.993-.9-.99-2.029,0-4.058,0-6.121,0Z" transform="translate(-4836.415 -5692.054)"/><path class="a" d="M4165.271,5743.943c1.818,1.072,3.521,2.161,4.339,4.155a3.769,3.769,0,0,1-1.067,4.333,8.254,8.254,0,0,1-6.109,2.361q-17.9-.01-35.8,0h-8.813l-.006-.12q6.46-.751,12.919-1.5,10.2-1.181,20.391-2.359c2.711-.314,5.422-.64,8.135-.949C4162.979,5749.435,4164.793,5747.694,4165.271,5743.943Z" transform="translate(-4117.815 -5727.384)"/><path class="a" d="M4204.017,5702.953l-11.186,1.295q-10.2,1.181-20.391,2.362-4.84.563-9.678,1.143a11.238,11.238,0,0,0-1.629.29c-2.794.771-4.488,2.468-4.527,5.666-1.814-1.069-3.443-2.124-4.313-4a3.6,3.6,0,0,1,.59-4.051,7.891,7.891,0,0,1,6.413-2.818q18.885-.012,37.771,0h6.944Z" transform="translate(-4144.834 -5694.811)"/><path class="a" d="M5336.507,5703.415c-1.61,0-3.125-.033-4.638.012-.886.026-1.083-.282-.847-1.108.819-2.874.8-2.878,3.833-2.878q6.219,0,12.438,0c.405,0,.811.046,1.434.086-.385,1.259-.689,2.406-1.115,3.506-.084.219-.635.352-.976.362-1.347.041-2.7.048-4.042,0a.976.976,0,0,0-1.152.838c-1.394,4.6-2.869,9.18-4.248,13.786a1.33,1.33,0,0,1-1.6,1.145,22.467,22.467,0,0,0-2.8,0c-.882.045-1.08-.249-.813-1.09,1.428-4.519,2.818-9.051,4.219-13.579C5336.3,5704.173,5336.386,5703.845,5336.507,5703.415Z" transform="translate(-5078.978 -5692.125)"/><path class="a" d="M4192.4,5671.1c6.773-9.234,21.33-9.134,27.979,0Z" transform="translate(-4176.91 -5664.215)"/><path class="a" d="M4220.39,5801.63c-6.678,9.16-21.239,9.206-27.977,0Z" transform="translate(-4176.92 -5773.091)"/></svg>