<svg xmlns="http://www.w3.org/2000/svg" width="20.556" height="21.299" viewBox="0 0 20.556 21.299"><defs><style>.a{fill:#fff;}</style></defs><path class="a" d="M10.275,7.426a5.359,5.359,0,0,0-5.269,5.461,5.359,5.359,0,0,0,5.269,5.461,5.359,5.359,0,0,0,5.269-5.461A5.359,5.359,0,0,0,10.275,7.426Zm0,9.011a3.552,3.552,0,0,1,0-7.1,3.552,3.552,0,0,1,0,7.1ZM16.988,7.2a1.23,1.23,0,1,1-1.229-1.274A1.249,1.249,0,0,1,16.988,7.2ZM20.478,8.5a6.433,6.433,0,0,0-1.66-4.463,6,6,0,0,0-4.306-1.72c-1.7-.1-6.782-.1-8.479,0A6,6,0,0,0,1.727,4.028,6.454,6.454,0,0,0,.067,8.491c-.1,1.758-.1,7.029,0,8.788a6.433,6.433,0,0,0,1.66,4.463,6.012,6.012,0,0,0,4.306,1.72c1.7.1,6.782.1,8.479,0a5.965,5.965,0,0,0,4.306-1.72,6.475,6.475,0,0,0,1.66-4.463c.1-1.758.1-7.024,0-8.783Zm-2.192,10.67a3.534,3.534,0,0,1-1.954,2.025c-1.353.556-4.563.428-6.058.428s-4.71.124-6.058-.428a3.534,3.534,0,0,1-1.954-2.025c-.537-1.4-.413-4.729-.413-6.278s-.119-4.881.413-6.278A3.534,3.534,0,0,1,4.217,4.584c1.353-.556,4.563-.428,6.058-.428s4.71-.124,6.058.428a3.534,3.534,0,0,1,1.954,2.025c.537,1.4.413,4.729.413,6.278S18.823,17.768,18.286,19.165Z" transform="translate(0.005 -2.238)"/></svg>