<svg xmlns="http://www.w3.org/2000/svg" width="76.82" height="77.211" viewBox="0 0 76.82 77.211"><defs><style>.a{fill:#ff6700;}</style></defs><path class="a" d="M1904.84,838.1l4.49-4.481.127-.127a38.479,38.479,0,0,0-11.75-23.364q-.976-.926-2.014-1.784a38.782,38.782,0,0,0-4.5-3.208,20.935,20.935,0,0,1-13.693,14.223q-.961.311-1.963.531V807.965q.992.146,1.963.355a30.294,30.294,0,0,1,7.312,2.584,17.77,17.77,0,0,0,3.651-7.289,38.46,38.46,0,0,0-10.963-3.59q-.973-.164-1.963-.278a39.34,39.34,0,0,0-8.98,0q-.99.114-1.963.278a38.47,38.47,0,0,0-10.962,3.589,17.776,17.776,0,0,0,3.651,7.29,30.309,30.309,0,0,1,7.311-2.584q.97-.209,1.963-.355v11.921q-1-.219-1.963-.531a20.934,20.934,0,0,1-13.694-14.222,38.78,38.78,0,0,0-4.5,3.207q-1.038.856-2.014,1.784a38.479,38.479,0,0,0-11.748,23.343l.148.148,4.49,4.481-4.638,4.629a38.479,38.479,0,0,0,11.748,23.343q.975.927,2.014,1.784a38.8,38.8,0,0,0,4.5,3.207,20.932,20.932,0,0,1,13.694-14.222q.961-.311,1.963-.531v11.921q-.992-.146-1.963-.355a30.314,30.314,0,0,1-7.311-2.584,17.776,17.776,0,0,0-3.651,7.29,38.481,38.481,0,0,0,10.962,3.589q.973.164,1.963.278a39.322,39.322,0,0,0,8.98,0q.989-.114,1.963-.278a38.472,38.472,0,0,0,10.963-3.59,17.771,17.771,0,0,0-3.651-7.289,30.3,30.3,0,0,1-7.312,2.585q-.97.209-1.963.355V856.307q1,.219,1.963.531a20.934,20.934,0,0,1,13.693,14.223,38.8,38.8,0,0,0,4.5-3.208q1.038-.857,2.014-1.784a38.479,38.479,0,0,0,11.75-23.364l-.127-.127Zm-56.192-20.689a28.713,28.713,0,0,0,15.946,10q.969.222,1.963.378v5.827h-25.7A30.328,30.328,0,0,1,1848.649,817.407Zm15.946,31.375a28.711,28.711,0,0,0-15.946,10,30.33,30.33,0,0,1-7.794-16.208h25.7V848.4Q1865.563,848.56,1864.594,848.783Zm28.851,10a28.714,28.714,0,0,0-15.946-10q-.969-.222-1.963-.378v-5.827h25.7A30.333,30.333,0,0,1,1893.445,858.786Zm-1.193-25.17h-16.715v-5.827q.994-.155,1.963-.378a28.716,28.716,0,0,0,15.946-10,30.331,30.331,0,0,1,7.794,16.208Z" transform="translate(-1832.638 -799.491)"/></svg>